<svg version="1.1" xmlns="http://www.w3.org/2000/svg" xmlns:xlink="http://www.w3.org/1999/xlink" width="9183.21844" height="655.12169" viewBox="0,0,9183.21844,655.12169"><defs><radialGradient cx="1552.77797" cy="184.87215" r="15.87214" gradientUnits="userSpaceOnUse" id="color-1"><stop offset="0" stop-color="#9966ff"/><stop offset="1" stop-color="#66ebff"/></radialGradient><radialGradient cx="1562.95189" cy="205.13446" r="15.87214" gradientUnits="userSpaceOnUse" id="color-2"><stop offset="0" stop-color="#9966ff"/><stop offset="1" stop-color="#66ebff"/></radialGradient><radialGradient cx="1562.95189" cy="235.52792" r="15.87214" gradientUnits="userSpaceOnUse" id="color-3"><stop offset="0" stop-color="#9966ff"/><stop offset="1" stop-color="#66ebff"/></radialGradient><radialGradient cx="1562.95189" cy="265.92138" r="15.87214" gradientUnits="userSpaceOnUse" id="color-4"><stop offset="0" stop-color="#9966ff"/><stop offset="1" stop-color="#66ebff"/></radialGradient><radialGradient cx="1552.77797" cy="316.57714" r="15.87214" gradientUnits="userSpaceOnUse" id="color-5"><stop offset="0" stop-color="#9966ff"/><stop offset="1" stop-color="#66ebff"/></radialGradient><radialGradient cx="1562.95189" cy="296.31484" r="15.87214" gradientUnits="userSpaceOnUse" id="color-6"><stop offset="0" stop-color="#9966ff"/><stop offset="1" stop-color="#66ebff"/></radialGradient><linearGradient x1="7050.70924" y1="28.69186" x2="7050.70924" y2="124.3528" gradientTransform="translate(-6723.57758,-62.29639) scale(0.9648,0.9648)" gradientUnits="userSpaceOnUse" id="color-7"><stop offset="0" stop-color="#78188c"/><stop offset="1" stop-color="#2b79ff"/></linearGradient><linearGradient x1="7050.70924" y1="28.69186" x2="7050.70924" y2="124.3528" gradientTransform="translate(-6723.57758,-62.29639) scale(0.9648,0.9648)" gradientUnits="userSpaceOnUse" id="color-8"><stop offset="0" stop-color="#78188c"/><stop offset="1" stop-color="#18438c"/></linearGradient></defs><g transform="translate(-429.53158,149.75)"><g data-paper-data="{&quot;isPaintingLayer&quot;:true}" fill-rule="nonzero" stroke-linejoin="miter" stroke-miterlimit="10" stroke-dasharray="" stroke-dashoffset="0" style="mix-blend-mode: normal"><path d="M636.53158,366.00002l146,-146l54,54l134.5,-134.5l152,152v121.5h-475.5z" fill="#71a4ea" stroke="#000000" stroke-width="2.5" stroke-linecap="round"/><path d="M971.03158,-40.49999l-146,146l-54,-54l-134.5,134.5v-255z" data-paper-data="{&quot;index&quot;:null}" fill="#71a4ea" stroke="#000000" stroke-width="2.5" stroke-linecap="round"/><path d="M1123.03158,-52.99997l474,5l2.45046,210.13438l-476.45046,0.36561l-185.5,-185.5z" fill="#71a4ea" stroke="#000000" stroke-width="2.5" stroke-linecap="round"/><text transform="translate(916.53158,302.8146) scale(1.13025,1.13025)" font-size="40" xml:space="preserve" fill="#1100ff" fill-rule="nonzero" stroke="none" stroke-width="1" stroke-linecap="butt" stroke-linejoin="miter" stroke-miterlimit="10" stroke-dasharray="" stroke-dashoffset="0" font-family="Sans Serif" font-weight="normal" text-anchor="start" style="mix-blend-mode: normal"><tspan x="0" dy="0">Easy</tspan></text><text transform="translate(430.53158,32.00001) scale(0.5,0.5)" font-size="40" xml:space="preserve" fill="#9966ff" fill-rule="nonzero" stroke="#fbff00" stroke-width="2" stroke-linecap="butt" stroke-linejoin="miter" stroke-miterlimit="10" stroke-dasharray="" stroke-dashoffset="0" font-family="Sans Serif" font-weight="normal" text-anchor="start" style="mix-blend-mode: normal"><tspan x="0" dy="0">Are you ready?</tspan></text><path d="M1087.53158,430.00002v-93h512v93z" fill="#71a4ea" stroke="#000000" stroke-width="2.5" stroke-linecap="butt"/><text transform="translate(1230.53158,117.37998) scale(0.42373,0.42373)" font-size="40" xml:space="preserve" fill="#1100ff" fill-rule="nonzero" stroke="none" stroke-width="1" stroke-linecap="butt" stroke-linejoin="miter" stroke-miterlimit="10" stroke-dasharray="" stroke-dashoffset="0" font-family="Sans Serif" font-weight="normal" text-anchor="start" style="mix-blend-mode: normal"><tspan x="0" dy="0">Just some simple straight fly</tspan></text><path d="M2226.53159,438.00002h-627v-98l174.5,-174.5l78,78l42.5,-42.5l35.5,35.5l112.5,-112.5l66.5,66.5l22,-22l88,88z" fill="#29f570" stroke="#000000" stroke-width="2.5" stroke-linecap="round"/><path d="M1596.5316,-47.99998l20,-32l594.75,43v146.25l-99.75,-99.75h-110.5l-63,63l-44,-44l-65.5,65.5l-81.5,-81.5l-146.5,146.5z" fill="#29f570" stroke="#000000" stroke-width="2.5" stroke-linecap="round"/><text transform="translate(1832.5316,319.75002) scale(1.04171,1.04171)" font-size="40" xml:space="preserve" fill="#3d7900" fill-rule="nonzero" stroke="none" stroke-width="1" stroke-linecap="butt" stroke-linejoin="miter" stroke-miterlimit="10" stroke-dasharray="" stroke-dashoffset="0" font-family="Sans Serif" font-weight="normal" text-anchor="start" style="mix-blend-mode: normal"><tspan x="0" dy="0">Normal</tspan></text><path d="M2372.53159,140v-167h54v167z" fill="#29f570" stroke="#000000" stroke-width="2.5" stroke-linecap="butt"/><path d="M2372.53159,470.00001v-167h54v167z" fill="#29f570" stroke="#000000" stroke-width="2.5" stroke-linecap="butt"/><path d="M2552.53159,50.00001v-167h54v167z" fill="#29f570" stroke="#000000" stroke-width="2.5" stroke-linecap="butt"/><path d="M2552.53159,380.00001v-167h54v167z" fill="#29f570" stroke="#000000" stroke-width="2.5" stroke-linecap="butt"/><path d="M2657.53161,95.00001v-167h54v167z" fill="#29f570" stroke="#000000" stroke-width="2.5" stroke-linecap="butt"/><path d="M2657.53161,425.00001v-167h54v167z" fill="#29f570" stroke="#000000" stroke-width="2.5" stroke-linecap="butt"/><path d="M3218.53161,185.00001v187h-467v-88l453,-99z" fill="#ffec47" stroke="#000000" stroke-width="2.5" stroke-linecap="round"/><path d="M2749.53161,-28.99999h452v148l-451,-56v-80z" fill="#ffec47" stroke="#000000" stroke-width="2.5" stroke-linecap="round"/><path d="M1544.86491,200.74429v-31.74428h15.82609v31.74428z" fill="url(#color-1)" stroke="#146700" stroke-width="2.5" stroke-linecap="butt"/><path d="M1555.03887,221.0066v-31.74429h15.82608v31.74429z" fill="url(#color-2)" stroke="#146700" stroke-width="2.5" stroke-linecap="butt"/><path d="M1555.03887,251.40006v-31.74429h15.82608v31.74429z" fill="url(#color-3)" stroke="#146700" stroke-width="2.5" stroke-linecap="butt"/><path d="M1555.03887,281.79353v-31.74429h15.82608v31.74429z" fill="url(#color-4)" stroke="#146700" stroke-width="2.5" stroke-linecap="butt"/><path d="M1544.86495,332.44928v-31.74429h15.82608v31.74429z" fill="url(#color-5)" stroke="#146700" stroke-width="2.5" stroke-linecap="butt"/><path d="M1555.03887,312.18699v-31.74429h15.82608v31.74429z" fill="url(#color-6)" stroke="#146700" stroke-width="2.5" stroke-linecap="butt"/><text transform="translate(2928.41437,55.3744) rotate(6.94497) scale(1.06338,1.06338)" font-size="40" xml:space="preserve" fill="#aa9d30" fill-rule="nonzero" stroke="none" stroke-width="1" stroke-linecap="butt" stroke-linejoin="miter" stroke-miterlimit="10" stroke-dasharray="" stroke-dashoffset="0" font-family="Sans Serif" font-weight="normal" text-anchor="start" style="mix-blend-mode: normal"><tspan x="0" dy="0">Hard</tspan></text><path d="M3345.53161,442.00001v-296c0,0 97.27178,89.80041 113,131c15.72822,41.19959 0,165 0,165z" fill="#ffec47" stroke="#000000" stroke-width="2.5" stroke-linecap="butt"/><path d="M3559.52193,-79.99999v296c0,0 -97.27178,-89.8004 -113,-131c-15.72822,-41.19959 0,-165 0,-165z" data-paper-data="{&quot;index&quot;:null}" fill="#ffec47" stroke="#000000" stroke-width="2.5" stroke-linecap="butt"/><path d="M3640.78161,399.00001v-85l102.5,-102.5l43.5,43.5l27.5,-27.5l15.5,15.5l84,-84l52.5,52.5l111.5,-111.5l93.5,93.5l35,-35l81.5,81.5l89.5,-89.5l123,123l11,-11l19.5,19.5l58.5,-58.5l16.5,16.5l19.5,-19.5v165.5h-616.5z" fill="#ff7c66" stroke="#000000" stroke-width="2.5" stroke-linecap="round"/><path d="M3637.60368,-52.99999h412.17793h570v182l-28,28l-15,-15l-45,45h-46l-109.5,-109.5l-84.5,84.5l-21,-21l-96.5,-96.5l-21,21l-96.5,-96.5l-118,118l-25.5,-25.5l-71.5,71.5l-43,-43l-18,18l-58,-58l-85,85v-168z" fill="#ff7c66" stroke="#000000" stroke-width="2.5" stroke-linecap="round"/><text transform="translate(3910.60368,310.92498) scale(0.87109,1.42236)" font-size="40" xml:space="preserve" fill="#ff4747" fill-rule="nonzero" stroke="none" stroke-width="1" stroke-linecap="butt" stroke-linejoin="miter" stroke-miterlimit="10" stroke-dasharray="" stroke-dashoffset="0" font-family="Sans Serif" font-weight="normal" text-anchor="start" style="mix-blend-mode: normal"><tspan x="0" dy="0">H a r d e r</tspan></text><path d="M4612.40086,139.47102l21.30435,28.69414l-15.2174,41.44709l3.04348,-38.25887z" fill="#00ff65" stroke="#000000" stroke-width="0" stroke-linecap="round"/><path d="M4626.09653,139.47102l21.30435,28.69414l-15.21739,41.44709l3.04347,-38.25887z" fill="#00ff65" stroke="#000000" stroke-width="0" stroke-linecap="round"/><path d="M5758.60368,-15.99999v164l-80,80l-224,-224l-71,71l-90,90l-41.5,-41.5l-44,44l-89,-89l-43,43l-43.5,-43.5l-43,43l-46,-46l-45,45l-46,-46l-47.5,47.5l-47,-47l-50,50l-53.5,-53.5v-82h623h445z" fill="#ff2bf8" stroke="#000000" stroke-width="2.5" stroke-linecap="round"/><path d="M5287.60368,396.00001h-54h-570.75v-41.75l36.75,-36.75l53.5,-53.5l50,50l47,-47l47.5,47.5l46,-46l45,45l46,-46l43,43l43.5,-43.5l43,43l89,-89l44,44l41.5,-41.5l132.25,-132.25l223.25,223.25l60.5,-60.5v125z" data-paper-data="{&quot;index&quot;:null}" fill="#ff2bf8" stroke="#000000" stroke-width="2.5" stroke-linecap="round"/><path d="M4765.60368,164.5c0,-7.73199 6.26802,-14 14,-14c7.73198,0 14,6.26801 14,14c0,7.73199 -6.26802,14 -14,14c-7.73198,0 -14,-6.26801 -14,-14z" fill="#ff2bf8" stroke="#000000" stroke-width="2.5" stroke-linecap="butt"/><path d="M4877.60368,213.50001c0,-8.00813 6.49187,-14.5 14.5,-14.5c8.00813,0 14.5,6.49187 14.5,14.5c0,8.00813 -6.49187,14.5 -14.5,14.5c-8.00813,0 -14.5,-6.49187 -14.5,-14.5z" fill="#ff2bf8" stroke="#000000" stroke-width="2.5" stroke-linecap="butt"/><path d="M4977.60368,154.5c0,-7.45585 6.04416,-13.5 13.5,-13.5c7.45584,0 13.5,6.04415 13.5,13.5c0,7.45585 -6.04416,13.5 -13.5,13.5c-7.45584,0 -13.5,-6.04415 -13.5,-13.5z" fill="#ff2bf8" stroke="#000000" stroke-width="2.5" stroke-linecap="butt"/><path d="M5073.10368,246.25001c0,-8.42234 6.82766,-15.25 15.25,-15.25c8.42234,0 15.25,6.82766 15.25,15.25c0,8.42234 -6.82766,15.25 -15.25,15.25c-8.42234,0 -15.25,-6.82766 -15.25,-15.25z" fill="#ff2bf8" stroke="#000000" stroke-width="2.5" stroke-linecap="butt"/><path d="M5186.60368,257.50001c0,-4.14213 3.35786,-7.5 7.5,-7.5c4.14214,0 7.5,3.35787 7.5,7.5c0,4.14213 -3.35786,7.5 -7.5,7.5c-4.14214,0 -7.5,-3.35787 -7.5,-7.5z" fill="#ff2bf8" stroke="#000000" stroke-width="2.5" stroke-linecap="butt"/><path d="M5119.60368,103.50001c0,-2.48528 2.01472,-4.5 4.5,-4.5c2.48528,0 4.5,2.01472 4.5,4.5c0,2.48528 -2.01472,4.5 -4.5,4.5c-2.48528,0 -4.5,-2.01472 -4.5,-4.5z" fill="#ff2bf8" stroke="#000000" stroke-width="2.5" stroke-linecap="butt"/><path d="M4685.60368,131c0,-6.62741 5.37259,-12 12,-12c6.62741,0 12,5.37259 12,12c0,6.62742 -5.37259,12 -12,12c-6.62741,0 -12,-5.37258 -12,-12z" fill="#ff2bf8" stroke="#000000" stroke-width="2.5" stroke-linecap="butt"/><path d="M5261.60368,151c0,-4.41828 3.58172,-8 8,-8c4.41828,0 8,3.58172 8,8c0,4.41828 -3.58172,8 -8,8c-4.41828,0 -8,-3.58172 -8,-8z" fill="#ff2bf8" stroke="#000000" stroke-width="2.5" stroke-linecap="butt"/><path d="M5463.60368,23.00001c0,4.97057 -3.80558,9 -8.5,9c-4.69442,0 -8.5,-4.02943 -8.5,-9c0,-4.97057 3.80558,-9 8.5,-9c4.69442,0 8.5,4.02943 8.5,9z" fill="#ff2bf8" stroke="#000000" stroke-width="2.5" stroke-linecap="butt"/><path d="M5745.35368,161c0,-3.86599 3.134,-7 7,-7c3.866,0 7,3.13401 7,7c0,3.86599 -3.134,7 -7,7c-3.866,0 -7,-3.13401 -7,-7z" fill="#ff2bf8" stroke="#000000" stroke-width="2.5" stroke-linecap="butt"/><text transform="translate(4854.35368,51.7713) scale(1.27346,1.27346)" font-size="40" xml:space="preserve" fill="#b013bf" fill-rule="nonzero" stroke="#b013bf" stroke-width="2" stroke-linecap="butt" stroke-linejoin="miter" stroke-miterlimit="10" stroke-dasharray="" stroke-dashoffset="0" font-family="Sans Serif" font-weight="normal" text-anchor="start" style="mix-blend-mode: normal"><tspan x="0" dy="0">Insane</tspan></text><path d="M5807.35368,385.00001v-79l180,-180l750,197v65h-637z" fill="#b225ff" stroke="#000000" stroke-width="2.5" stroke-linecap="round"/><path d="M5797.35368,121.00001v-147h306h640v262l-195,-24l-632.5,-198.5l-110.5,110.5z" fill="#b225ff" stroke="#000000" stroke-width="2.5" stroke-linecap="round"/><text transform="translate(5949.35368,247.12501) scale(1.2259,1.2259)" font-size="40" xml:space="preserve" fill="#5b1381" fill-rule="nonzero" stroke="#5b1381" stroke-width="3" stroke-linecap="butt" stroke-linejoin="miter" stroke-miterlimit="10" stroke-dasharray="" stroke-dashoffset="0" font-family="Sans Serif" font-weight="normal" text-anchor="start" style="mix-blend-mode: normal"><tspan x="0" dy="0">Easy</tspan><tspan x="0" dy="46.15px">     Demon</tspan></text><path d="M6844.85369,384.00001v-152h426v152z" fill="#dd2bff" stroke="#000000" stroke-width="2.5" stroke-linecap="butt"/><path d="M6843.85369,174v-188h426v188z" fill="#dd2bff" stroke="#000000" stroke-width="2.5" stroke-linecap="butt"/><text transform="translate(6968.85369,64.56896) scale(1.03648,1.03648)" font-size="40" xml:space="preserve" fill="url(#color-7)" fill-rule="nonzero" stroke="url(#color-8)" stroke-width="4" stroke-linecap="butt" stroke-linejoin="miter" stroke-miterlimit="10" stroke-dasharray="" stroke-dashoffset="0" font-family="Sans Serif" font-weight="normal" text-anchor="start" style="mix-blend-mode: normal"><tspan x="0" dy="0">Medium</tspan><tspan x="0" dy="46.15px"> Demon</tspan></text><path d="M7369.85369,429.00001v-181.43182h426v181.43182z" fill="#dd2bff" stroke="#000000" stroke-width="2.5" stroke-linecap="butt"/><path d="M7369.85369,191.43183v-203.43182h426v203.43182z" fill="#dd2bff" stroke="#000000" stroke-width="2.5" stroke-linecap="butt"/><path d="M7881.85368,380.00001v-203l43,-43v242z" fill="#c70000" stroke="#000000" stroke-width="2.5" stroke-linecap="round"/><path d="M7924.85368,-125.99999v203l-43,43v-242z" data-paper-data="{&quot;index&quot;:null}" fill="#c70000" stroke="#000000" stroke-width="2.5" stroke-linecap="round"/><path d="M8076.85368,481.00001v-242l43,43v203z" data-paper-data="{&quot;index&quot;:null}" fill="#c70000" stroke="#000000" stroke-width="2.5" stroke-linecap="round"/><path d="M8119.85368,-30.86991v249.86992l-43,-44.39838v-209.60162z" data-paper-data="{&quot;index&quot;:null}" fill="#c70000" stroke="#000000" stroke-width="2.5" stroke-linecap="round"/><path d="M7948.85368,46.50001c0,-11.32183 9.17817,-20.5 20.5,-20.5c11.32183,0 20.5,9.17817 20.5,20.5c0,11.32184 -9.17817,20.5 -20.5,20.5c-11.32183,0 -20.5,-9.17816 -20.5,-20.5z" fill="#c70000" stroke="#000000" stroke-width="2.5" stroke-linecap="butt"/><path d="M8026.85368,273.00001c0,-12.15026 9.84974,-22 22,-22c12.15026,0 22,9.84974 22,22c0,12.15026 -9.84974,22 -22,22c-12.15026,0 -22,-9.84974 -22,-22z" fill="#c70000" stroke="#000000" stroke-width="2.5" stroke-linecap="butt"/><path d="M8022.85368,111.50001c0,-3.03757 2.46244,-5.5 5.5,-5.5c3.03756,0 5.5,2.46243 5.5,5.5c0,3.03757 -2.46244,5.5 -5.5,5.5c-3.03756,0 -5.5,-2.46243 -5.5,-5.5z" fill="#c70000" stroke="#000000" stroke-width="2.5" stroke-linecap="butt"/><path d="M7937.85368,222.50001c0,-6.90356 5.59644,-12.5 12.5,-12.5c6.90356,0 12.5,5.59644 12.5,12.5c0,6.90356 -5.59644,12.5 -12.5,12.5c-6.90356,0 -12.5,-5.59644 -12.5,-12.5z" fill="#c70000" stroke="#000000" stroke-width="2.5" stroke-linecap="butt"/><path d="M7957.85368,148c0,-4.97056 4.02944,-9 9,-9c4.97056,0 9,4.02944 9,9c0,4.97056 -4.02944,9 -9,9c-4.97056,0 -9,-4.02944 -9,-9z" fill="#c70000" stroke="#000000" stroke-width="2.5" stroke-linecap="butt"/><path d="M8470.85364,2v242l-43,-43v-203z" data-paper-data="{&quot;index&quot;:null}" fill="#c70000" stroke="#000000" stroke-width="2.5" stroke-linecap="round"/><path d="M8427.85364,500.00001v-242l43,43v203z" data-paper-data="{&quot;index&quot;:null}" fill="#c70000" stroke="#000000" stroke-width="2.5" stroke-linecap="round"/><path d="M8275.85364,-106.99999v211.25203l-43,44.74797v-251.8374z" data-paper-data="{&quot;index&quot;:null}" fill="#c70000" stroke="#000000" stroke-width="2.5" stroke-linecap="round"/><path d="M8232.85367,413.00001v-203l43,-43v242z" data-paper-data="{&quot;index&quot;:null}" fill="#c70000" stroke="#000000" stroke-width="2.5" stroke-linecap="round"/><path d="M8403.85364,331.50001c0,11.32184 -9.17817,20.5 -20.5,20.5c-11.32183,0 -20.5,-9.17816 -20.5,-20.5c0,-11.32184 9.17817,-20.5 20.5,-20.5c11.32183,0 20.5,9.17816 20.5,20.5z" data-paper-data="{&quot;index&quot;:null}" fill="#c70000" stroke="#000000" stroke-width="2.5" stroke-linecap="butt"/><path d="M8346.85364,114.00001c0,12.15027 -9.84974,22 -22,22c-12.15026,0 -22,-9.84973 -22,-22c0,-12.15027 9.84974,-22 22,-22c12.15026,0 22,9.84973 22,22z" data-paper-data="{&quot;index&quot;:null}" fill="#c70000" stroke="#000000" stroke-width="2.5" stroke-linecap="butt"/><path d="M8329.85364,266.50001c0,3.03756 -2.46244,5.5 -5.5,5.5c-3.03756,0 -5.5,-2.46244 -5.5,-5.5c0,-3.03756 2.46244,-5.5 5.5,-5.5c3.03756,0 5.5,2.46244 5.5,5.5z" data-paper-data="{&quot;index&quot;:null}" fill="#c70000" stroke="#000000" stroke-width="2.5" stroke-linecap="butt"/><path d="M8414.85364,155.5c0,6.90356 -5.59644,12.5 -12.5,12.5c-6.90356,0 -12.5,-5.59644 -12.5,-12.5c0,-6.90356 5.59644,-12.5 12.5,-12.5c6.90356,0 12.5,5.59644 12.5,12.5z" data-paper-data="{&quot;index&quot;:null}" fill="#c70000" stroke="#000000" stroke-width="2.5" stroke-linecap="butt"/><path d="M8394.85364,241.00001c0,4.97056 -4.02944,9 -9,9c-4.97056,0 -9,-4.02944 -9,-9c0,-4.97056 4.02944,-9 9,-9c4.97056,0 9,4.02944 9,9z" data-paper-data="{&quot;index&quot;:null}" fill="#c70000" stroke="#000000" stroke-width="2.5" stroke-linecap="butt"/><text transform="translate(8089.05492,18.26128) rotate(90) scale(0.5,0.5)" font-size="40" xml:space="preserve" fill="#370000" fill-rule="nonzero" stroke="#000000" stroke-width="2" stroke-linecap="butt" stroke-linejoin="miter" stroke-miterlimit="10" stroke-dasharray="" stroke-dashoffset="0" font-family="Sans Serif" font-weight="normal" text-anchor="start" style="mix-blend-mode: normal"><tspan x="0" dy="0">HARD DEMON</tspan></text><path d="M8950.85364,170l-126.5,126.5l-23.5,-23.5l-33,33l-62,-62l-126,126h-19l145.5,-145.5l64.5,64.5l29.5,-29.5l24.5,24.5l121,-121z" fill="#883838" stroke="#000000" stroke-width="2.5" stroke-linecap="round"/><path d="M8922.35364,139.5l-98,98l-28.5,-28.5l-31,31l-58.5,-58.5l-123.5,123.5l-1,-23l122,-124l55.5,55.5l35,-35l27,27l85,-85h15.5z" fill="#883838" stroke="#000000" stroke-width="2.5" stroke-linecap="round"/><path d="M8443.85364,-61.99999l121,121l24.5,-24.5l29.5,29.5l64.5,-64.5l145.5,145.5h-19l-126,-126l-62,62l-33,-33l-23.5,23.5l-126.5,-126.5z" data-paper-data="{&quot;index&quot;:null}" fill="#883838" stroke="#000000" stroke-width="2.5" stroke-linecap="round"/><path d="M8467.85364,-105.5h15.5l85,85l27,-27l35,35l55.5,-55.5l150,150v26l-152.5,-152.5l-58.5,58.5l-31,-31l-28.5,28.5l-98,-98z" data-paper-data="{&quot;index&quot;:null}" fill="#883838" stroke="#000000" stroke-width="2.5" stroke-linecap="round"/><path d="M8682.85364,-104.99999l121,121l24.5,-24.5l29.5,29.5l64.5,-64.5l145.5,145.5h-19l-126,-126l-62,62l-33,-33l-23.5,23.5l-126.5,-126.5z" data-paper-data="{&quot;index&quot;:null}" fill="#883838" stroke="#000000" stroke-width="2.5" stroke-linecap="round"/><path d="M8706.85364,-148.5h15.5l85,85l27,-27l35,35l55.5,-55.5l150,150v26l-152.5,-152.5l-58.5,58.5l-31,-31l-28.5,28.5l-98,-98z" data-paper-data="{&quot;index&quot;:null}" fill="#883838" stroke="#000000" stroke-width="2.5" stroke-linecap="round"/><text transform="translate(8600.81418,129) scale(0.85421,1.10671)" font-size="40" xml:space="preserve" fill="#883838" fill-rule="nonzero" stroke="#4c1f1f" stroke-width="6" stroke-linecap="butt" stroke-linejoin="miter" stroke-miterlimit="10" stroke-dasharray="" stroke-dashoffset="0" font-family="Sans Serif" font-weight="normal" text-anchor="start" style="mix-blend-mode: normal"><tspan x="0" dy="0">INSANE DEMON</tspan></text><path d="M8479.85364,417v-423h15v423z" fill="#9966ff" stroke="none" stroke-width="NaN" stroke-linecap="butt"/><text transform="translate(7524.29512,132) scale(0.5,0.5)" font-size="40" xml:space="preserve" fill="#000000" fill-rule="nonzero" stroke="none" stroke-width="1" stroke-linecap="butt" stroke-linejoin="miter" stroke-miterlimit="10" stroke-dasharray="" stroke-dashoffset="0" font-family="Sans Serif" font-weight="normal" text-anchor="start" style="mix-blend-mode: normal"><tspan x="0" dy="0">tight gap :o</tspan></text><path d="M8955.85364,290.00001l-126.5,126.5l-23.5,-23.5l-33,33l-62,-62l-126,126h-19l145.5,-145.5l64.5,64.5l29.5,-29.5l24.5,24.5l121,-121z" data-paper-data="{&quot;index&quot;:null}" fill="#883838" stroke="#000000" stroke-width="2.5" stroke-linecap="round"/><path d="M9315.60364,377h-15.5l-85,-85l-27,27l-35,-35l-55.5,55.5l-150,-150v-26l152.5,152.5l58.5,-58.5l31,31l28.5,-28.5l98,98z" data-paper-data="{&quot;index&quot;:null}" fill="#883838" stroke="#000000" stroke-width="2.5" stroke-linecap="round"/><path d="M8896.86671,61.2529l44.32955,-65.93746l8.86722,6.71165z" fill="#505050" stroke="#000000" stroke-width="2.5" stroke-linecap="butt"/><path d="M8913.3209,63.2529l38.95118,-57.93746l7.79138,5.89735z" fill="#505050" stroke="#000000" stroke-width="2.5" stroke-linecap="butt"/><path d="M8930.9683,68.2529l34.24509,-50.93746l6.85003,5.18483z" fill="#505050" stroke="#000000" stroke-width="2.5" stroke-linecap="butt"/><path d="M9014.06346,148.66846l-32.66316,48.58445l-6.5336,-4.94532z" fill="#505050" stroke="#000000" stroke-width="2.5" stroke-linecap="butt"/><path d="M9011.60925,129.31544l-38.95118,57.93747l-7.79138,-5.89735z" fill="#505050" stroke="#000000" stroke-width="2.5" stroke-linecap="butt"/><path d="M8993.96179,124.31544l-34.24509,50.93747l-6.85003,-5.18483z" fill="#505050" stroke="#000000" stroke-width="2.5" stroke-linecap="butt"/><text transform="translate(6118.97144,61.73774) rotate(15.85473) scale(0.5,0.5)" font-size="40" xml:space="preserve" fill="#ffffff" fill-rule="nonzero" stroke="none" stroke-width="1" stroke-linecap="butt" stroke-linejoin="miter" stroke-miterlimit="10" stroke-dasharray="" stroke-dashoffset="0" font-family="Sans Serif" font-weight="normal" text-anchor="start" style="mix-blend-mode: normal"><tspan x="0" dy="0">Shoutout to average_gamer1</tspan></text><path d="M9605.25002,-10v380" fill="none" stroke="#0cffff" stroke-width="15" stroke-linecap="round"/></g></g></svg>