<svg version="1.1" xmlns="http://www.w3.org/2000/svg" xmlns:xlink="http://www.w3.org/1999/xlink" width="14.26906" height="14.3585" viewBox="0,0,14.26906,14.3585"><g transform="translate(-232.73434,-172.13201)"><g data-paper-data="{&quot;isPaintingLayer&quot;:true}" fill-rule="nonzero" stroke-width="0.5" stroke-linejoin="miter" stroke-miterlimit="10" stroke-dasharray="" stroke-dashoffset="0" style="mix-blend-mode: normal"><path d="M235.22598,179.95032l0.02401,0.04967c0.00281,-0.75722 -0.09451,-1.29436 -0.33651,-2.01283c0,0 -0.10219,-0.30657 0.02882,-0.58432c-0.39548,-0.47321 -0.67267,-0.9644 -1.14835,-1.40788c0,0 -0.52211,-0.50172 -0.05221,-1.05919c0.4699,-0.55747 0.99202,-0.05575 0.99202,-0.05575c0.1133,0.11133 0.21541,0.22481 0.31066,0.33932c0.3955,-0.07766 0.91727,0.20475 1.19115,0.55412c0.57307,0.73102 1.4802,3.86993 0.69729,5.02573c-0.01097,0.12035 -0.02369,0.24049 -0.03802,0.36017c0.00342,0.00513 0.00684,0.01034 0.01024,0.01563c0.38601,0.6 -0.12867,1.05 -0.12867,1.05l-0.38749,0.33556c-0.35814,0.37027 -0.73442,0.71731 -1.12126,1.046c0,0 -0.5203,0.44113 -0.8987,-0.16542c-0.3784,-0.60655 0.1419,-1.04768 0.1419,-1.04768c0.1409,-0.11919 0.28024,-0.24111 0.41753,-0.36611c0.13561,-0.46013 0.24598,-0.97799 0.42639,-1.34226c-0.27275,-0.30296 -0.12882,-0.73474 -0.12882,-0.73474z" fill="#00ffe6" stroke="none" stroke-linecap="butt"/><path d="M246.7534,179.66154l-12.63196,6.16058c0,0 3.34823,-4.56572 3.34823,-6.73367c0,-2.02484 -3.65261,-6.16058 -3.65261,-6.16058l12.93634,6.44713" data-paper-data="{&quot;index&quot;:null}" fill="#fcff00" stroke="#2b0000" stroke-linecap="round"/><path d="M236.47192,181.99856l-2.77135,2.25988l1.98232,-4.90467l-2.43629,-4.75334l2.36221,0.85528" fill="none" stroke="#3c0000" stroke-linecap="round"/><path d="M242.71631,179.31528c0.48076,0.13736 0.3434,0.61812 0.3434,0.61812l-0.23247,0.58461c-1.17466,1.16133 -3.02557,1.46242 -4.28605,0.26316c0,0 -0.35355,-0.35355 0,-0.70711c0.35355,-0.35355 0.70711,0 0.70711,0c0.7943,0.85923 2.13925,0.47978 2.87184,-0.26316l-0.02195,-0.15223c0,0 0.13736,-0.48076 0.61812,-0.3434z" fill="#000000" stroke="none" stroke-linecap="butt"/><path d="M238.81579,177.95394c0,-0.27614 0.22386,-0.5 0.5,-0.5c0.27614,0 0.5,0.22386 0.5,0.5c0,0.27614 -0.22386,0.5 -0.5,0.5c-0.27614,0 -0.5,-0.22386 -0.5,-0.5z" fill="#000000" stroke="none" stroke-linecap="butt"/><path d="M240.86842,178.00657c0,-0.27614 0.22386,-0.5 0.5,-0.5c0.27614,0 0.5,0.22386 0.5,0.5c0,0.27614 -0.22386,0.5 -0.5,0.5c-0.27614,0 -0.5,-0.22386 -0.5,-0.5z" fill="#000000" stroke="none" stroke-linecap="butt"/></g></g></svg>