<svg width="512" height="512" viewBox="0 0 512 512" fill="none" xmlns="http://www.w3.org/2000/svg">
<path d="M135.393 284.451L74.447 223.798C61.7115 211.123 54.4874 193.968 54.3335 176.034L53.3335 59.5101C53.2459 49.3094 65.6274 44.1473 72.8571 51.3703L192.176 170.581C203.376 181.771 210.337 196.482 211.875 212.211L212.222 215.764L235.819 209.295C247.679 206.044 260.2 206.031 272.067 209.257L295.653 215.67C295.667 213.022 295.989 209.635 296.449 206.109C298.15 193.079 304.844 181.322 314.14 172.002L433.794 52.0453C441.142 44.6794 453.74 50.1529 453.323 60.5297L448.404 182.873C447.711 200.093 440.515 216.414 428.272 228.587C403.072 253.642 371.967 284.637 371.967 284.637L413.015 364.575C416.827 372 411.6 380.856 403.234 381.145L333.663 383.545L271.07 453.69C261.938 463.924 245.873 463.874 236.806 453.584L175.088 383.545L100.131 381.13C91.563 380.854 86.3376 371.627 90.53 364.177L135.393 284.451Z" fill="#9747FF"/>
</svg>
